<svg viewBox="0 0 1024 1024" xmlns="http://www.w3.org/2000/svg" xml:space="preserve" style="fill-rule:evenodd;clip-rule:evenodd;stroke-linejoin:round;stroke-miterlimit:2"><path d="M10.938 9H9v1.938a.868.868 0 0 0 .32-.172l1.446-1.446a.868.868 0 0 0 .172-.32zM8.75 8H11V1H1v10h7V8.75c0-.208.073-.385.219-.531A.723.723 0 0 1 8.75 8zM12 .75v8c0 .208-.052.438-.156.688a1.81 1.81 0 0 1-.375.593l-1.438 1.438a1.81 1.81 0 0 1-.593.375A1.81 1.81 0 0 1 8.75 12h-8a.723.723 0 0 1-.531-.219A.723.723 0 0 1 0 11.25V.75C0 .542.073.365.219.219A.723.723 0 0 1 .75 0h10.5c.208 0 .385.073.531.219A.723.723 0 0 1 12 .75z" style="fill:#175ddc;fill-rule:nonzero" transform="scale(85.3333)"/><path d="M2.738 5.455h4.364V3.818c0-.602-.213-1.116-.639-1.542a2.102 2.102 0 0 0-1.543-.64c-.602 0-1.116.213-1.543.64-.426.426-.639.94-.639 1.542v1.637zm7.091.818v4.909c0 .227-.079.42-.239.579a.789.789 0 0 1-.579.239H.829a.789.789 0 0 1-.579-.239.785.785 0 0 1-.239-.579V6.273c0-.228.079-.421.239-.58a.788.788 0 0 1 .579-.238h.273V3.818c0-1.045.375-1.943 1.125-2.693S3.875 0 4.92 0c1.045 0 1.943.375 2.693 1.125s1.125 1.648 1.125 2.693v1.637h.273c.227 0 .42.079.579.238.16.159.239.352.239.58z" style="fill:#175ddc;fill-rule:nonzero" transform="translate(169.523 372.167) scale(43.6944)"/></svg>